#!OML:ASF E:\Steps\Project 1\Capture day 1\Session 2\Subject.ASF
:FULLY-SPECIFIED
:DEGREES
16
root 9.17795 16.3936 19.2533 -152.025 -1.88066 -179.852
lowerback -26.3478 -1.42104 -5.25311
upperback -1.83111 -0.862545 -0.221819
thorax 12.7332 -0.930432 2.40528
lowerneck 0.43466 -4.80651 -6.52135
upperneck -9.20281 -6.28833 14.5033
head -2.06362 -3.68812 5.57106
rclavicle 2.98177e-016 -2.78299e-015
rhumerus -30.4115 -22.6848 -79.7813
rradius 23.4211
rwrist 9.78485
rhand -8.25749 -48.9171
rfingers 7.12502
rthumb 17.6611 -78.135
lclavicle 2.98177e-016 -2.78299e-015
lhumerus -24.6593 -2.55793 85.355
lradius 21.5308
lwrist -9.16372
lhand -21.7632 -16.0241
lfingers 7.12502
lthumb 4.63747 13.9051
rfemur -28.5751 7.49056 16.3861
rtibia 8.61445
rfoot -16.8949 -6.46862
rtoes -33.8636
lfemur -28.4958 -7.50728 -17.5034
ltibia 9.05269
lfoot -7.43216 3.50267
ltoes -39.8163
17
root 9.1779 16.3925 19.2483 -151.983 -1.87961 -179.812
lowerback -26.4438 -1.40069 -5.19704
upperback -1.78407 -0.838885 -0.235562
thorax 12.8375 -0.917186 2.36462
lowerneck 0.117345 -5.01187 -6.13605
upperneck -9.50946 -6.56864 14.4636
head -2.08593 -3.85585 5.49239
rclavicle 3.57812e-015 -2.78299e-015
rhumerus -30.488 -21.4929 -80.1402
rradius 23.7483
rwrist 8.70195
rhand -8.27134 -48.5199
rfingers 7.12502
rthumb 17.6477 -77.739
lclavicle 3.57812e-015 -2.78299e-015
lhumerus -24.6654 -3.11941 85.2842
lradius 21.6377
lwrist -9.06622
lhand -21.2491 -16.0255
lfingers 7.12502
lthumb 5.1338 13.8923
rfemur -28.5439 7.6975 16.3528
rtibia 8.47635
rfoot -16.844 -6.56468
rtoes -33.5664
lfemur -28.5151 -7.43993 -17.4812
ltibia 9.05953
lfoot -7.40966 3.50313
ltoes -40.3445
18
root 9.17882 16.3912 19.2416 -151.986 -1.89801 -179.83
lowerback -26.5132 -1.37969 -5.20712
upperback -1.72173 -0.789076 -0.284295
thorax 12.9437 -0.893982 2.33191
lowerneck 0.262912 -4.75329 -6.21322
upperneck -8.97555 -6.22227 14.1336
head -2.00108 -3.63246 5.39387
rclavicle -4.96962e-016 -1.51076e-014
rhumerus -31.026 -19.1552 -80.8953
rradius 25.0081
rwrist 6.404
rhand -8.23849 -49.6585
rfingers 7.12502
rthumb 17.6794 -78.8748
lclavicle -4.96962e-016 -1.51076e-014
lhumerus -24.6507 -3.81966 85.2024
lradius 21.7139
lwrist -8.80665
lhand -21.5824 -15.6522
lfingers 7.12502
lthumb 4.81197 14.2732
rfemur -28.4013 7.7696 16.3231
rtibia 8.27147
rfoot -16.7857 -6.59495
rtoes -33.8021
lfemur -28.4695 -7.33359 -17.5794
ltibia 9.02921
lfoot -7.30055 3.48673
ltoes -42.1012
19
root 9.18182 16.3908 19.2357 -152.04 -1.91488 -179.889
lowerback -26.501 -1.45374 -5.29116
upperback -1.65292 -0.852609 -0.256042
thorax 13.025 -0.927343 2.38923
lowerneck -0.219664 -5.13504 -5.80049
upperneck -9.59806 -6.74246 14.1932
head -2.06171 -3.94232 5.34399
rclavicle -2.98177e-016 -9.14409e-015
rhumerus -31.3222 -17.8816 -81.1683
rradius 25.5437
rwrist 5.40023
rhand -8.39077 -49.6268
rfingers 7.12502
rthumb 17.5328 -78.8562
lclavicle -2.98177e-016 -9.14409e-015
lhumerus -24.6585 -4.06635 85.1117
lradius 21.6841
lwrist -8.74248
lhand -21.6436 -15.6294
lfingers 7.12502
lthumb 4.75294 14.2973
rfemur -28.1629 7.90119 16.2408
rtibia 7.98421
rfoot -16.6549 -6.77785
rtoes -34.1932
lfemur -28.3438 -7.45306 -17.6037
ltibia 8.9034
lfoot -7.29584 3.49197
ltoes -41.462
20
root 9.18458 16.3914 19.2325 -152.024 -1.93969 -179.9
lowerback -26.4985 -1.48652 -5.32253
upperback -1.61139 -0.880699 -0.239329
thorax 13.0758 -0.941707 2.41605
lowerneck -0.248811 -4.92561 -5.99117
upperneck -9.17681 -6.45985 13.912
head -1.96704 -3.75181 5.277
rclavicle 1.09332e-015 -1.82882e-014
rhumerus -31.3093 -17.9922 -80.9713
rradius 25.2068
rwrist 5.82742
rhand -8.57783 -48.7728
rfingers 7.12502
rthumb 17.3528 -78.0182
lclavicle 1.09332e-015 -1.82882e-014
lhumerus -24.758 -4.57964 85.036
lradius 21.7212
lwrist -8.5478
lhand -21.7832 -15.605
lfingers 7.12502
lthumb 4.61811 14.3247
rfemur -28.0629 8.10037 16.1763
rtibia 7.77979
rfoot -16.5258 -7.06643
rtoes -34.3332
lfemur -28.3181 -7.43326 -17.6109
ltibia 8.85372
lfoot -7.26891 3.45492
ltoes -41.58
21
root 9.18659 16.3919 19.2308 -151.935 -1.99706 -179.893
lowerback -26.3352 -1.47911 -5.29565
upperback -1.73453 -0.904619 -0.259805
thorax 12.8436 -0.948865 2.37069
lowerneck -0.323606 -4.84978 -5.99466
upperneck -8.61032 -6.36793 13.6996
head -1.80659 -3.66198 5.19386
rclavicle 7.95139e-016 -1.27222e-014
rhumerus -31.7046 -17.7934 -80.8169
rradius 25.0364
rwrist 6.2058
rhand -8.68584 -48.5216
rfingers 7.12502
rthumb 17.2488 -77.7761
lclavicle 7.95139e-016 -1.27222e-014
lhumerus -25.1206 -5.09587 84.8989
lradius 21.7829
lwrist -8.43915
lhand -22.0386 -15.7732
lfingers 7.12502
lthumb 4.37151 14.1617
rfemur -28.1199 8.24734 16.1407
rtibia 7.72697
rfoot -16.5221 -7.26536
rtoes -33.976
lfemur -28.4262 -7.14692 -17.7152
ltibia 8.95137
lfoot -7.17806 3.32743
ltoes -43.7851
22
root 9.1895 16.3926 19.2294 -151.874 -2.07878 -179.927
lowerback -25.812 -1.44638 -5.26705
upperback -2.06619 -0.940918 -0.335188
thorax 12.174 -0.956609 2.26352
lowerneck -0.292016 -4.86963 -5.9301
upperneck -8.00656 -6.41118 13.585
head -1.63786 -3.64907 5.1316
rclavicle -1.78906e-015 -5.1684e-015
rhumerus -32.5339 -17.2023 -80.7999
rradius 25.0889
rwrist 6.30698
rhand -8.98819 -48.8828
rfingers 7.12502
rthumb 16.9578 -78.1625
lclavicle -1.78906e-015 -5.1684e-015
lhumerus -25.8206 -5.56525 84.6792
lradius 21.8345
lwrist -8.45451
lhand -22.2499 -16.0189
lfingers 7.12502
lthumb 4.1675 13.9201
rfemur -28.1367 8.35693 16.079
rtibia 7.67681
rfoot -16.5591 -7.39438
rtoes -33.4994
lfemur -28.542 -7.04596 -17.7872
ltibia 9.08272
lfoot -7.23141 3.23316
ltoes -44.4243
23
root 9.19206 16.3943 19.227 -151.839 -2.15396 -179.97
lowerback -25.2143 -1.433 -5.25239
upperback -2.41442 -1.0075 -0.388393
thorax 11.4532 -0.97967 2.18237
lowerneck -0.315231 -4.89858 -5.85888
upperneck -7.49492 -6.46663 13.4289
head -1.48782 -3.64561 5.05696
rclavicle -1.16289e-014 -5.1684e-015
rhumerus -33.3808 -16.6046 -80.7744
rradius 25.2566
rwrist 6.29896
rhand -9.1557 -50.0428
rfingers 7.12502
rthumb 16.7966 -79.3363
lclavicle -1.16289e-014 -5.1684e-015
lhumerus -26.6446 -6.22231 84.548
lradius 21.9456
lwrist -8.2658
lhand -22.3047 -16.0465
lfingers 7.12502
lthumb 4.11455 13.8935
rfemur -28.0609 8.48774 16.0013
rtibia 7.50256
rfoot -16.5341 -7.5567
rtoes -32.9728
lfemur -28.5969 -7.24038 -17.7452
ltibia 9.09544
lfoot -7.33921 3.24156
ltoes -43.5066
24
root 9.19259 16.3934 19.2204 -151.753 -2.12034 -179.916
lowerback -25.8927 -1.43347 -5.17279
upperback -1.99879 -0.927291 -0.418103
thorax 12.2924 -0.943552 2.11812
lowerneck -0.704237 -4.9277 -5.66237
upperneck -7.70469 -6.50275 13.2787
head -1.49402 -3.66824 4.97201
rclavicle -2.98177e-015 2.26615e-014
rhumerus -33.0481 -16.6317 -80.7007
rradius 25.1059
rwrist 6.43009
rhand -9.15669 -49.65
rfingers 7.12502
rthumb 16.7956 -78.9436
lclavicle -2.98177e-015 2.26615e-014
lhumerus -26.1913 -6.76843 84.3496
lradius 21.888
lwrist -8.16555
lhand -22.3086 -15.9358
lfingers 7.12502
lthumb 4.11075 14.0042
rfemur -28.0859 8.56757 16.0436
rtibia 7.40414
rfoot -16.5143 -7.56767
rtoes -32.6892
lfemur -28.6053 -7.59415 -17.5066
ltibia 8.94941
lfoot -7.44131 3.41188
ltoes -41.0361
25
root 9.19327 16.3936 19.2111 -151.799 -2.01181 -179.784
lowerback -25.3477 -1.3127 -5.06396
upperback -2.27884 -0.867398 -0.430872
thorax 11.6676 -0.903769 2.07222
lowerneck -0.84647 -5.08019 -5.45742
upperneck -7.49034 -6.72266 13.2073
head -1.39711 -3.7696 4.90389
rclavicle -2.28602e-015 -2.8625e-014
rhumerus -33.9327 -16.0906 -80.4537
rradius 25.2224
rwrist 6.29527
rhand -9.21305 -48.947
rfingers 7.12502
rthumb 16.7413 -78.2452
lclavicle -2.28602e-015 -2.8625e-014
lhumerus -26.9536 -6.97675 84.1584
lradius 21.9041
lwrist -8.44006
lhand -22.372 -16.0056
lfingers 7.12502
lthumb 4.04958 13.9356
rfemur -27.9647 8.72425 16.1832
rtibia 7.26836
rfoot -16.4285 -7.56073
rtoes -33.0395
lfemur -28.4361 -7.70586 -17.3058
ltibia 8.83727
lfoot -7.53251 3.63757
ltoes -40.2483
26
root 9.19947 16.3939 19.2129 -151.677 -2.0671 -179.788
lowerback -25.277 -1.41386 -5.14813
upperback -2.26914 -0.987911 -0.319929
thorax 11.6533 -0.964274 2.20531
lowerneck -1.35241 -5.34863 -5.15552
upperneck -7.98977 -7.09244 13.2185
head -1.43573 -3.98654 4.85042
rclavicle 2.38542e-015 -2.74323e-014
rhumerus -34.0488 -15.6378 -80.2073
rradius 25.028
rwrist 6.39338
rhand -8.9919 -48.3995
rfingers 7.12502
rthumb 16.9542 -77.6795
lclavicle 2.38542e-015 -2.74323e-014
lhumerus -27.1844 -7.03464 84.0402
lradius 21.8942
lwrist -8.37882
lhand -22.4177 -15.9665
lfingers 7.12502
lthumb 4.0054 13.9756
rfemur -28.0345 8.993 16.0969
rtibia 7.09799
rfoot -16.2863 -7.92076
rtoes -33.4793
lfemur -28.6422 -7.4664 -17.3482
ltibia 8.97955
lfoot -7.50646 3.51279
ltoes -42.0414
27
root 9.20464 16.3929 19.2066 -151.607 -2.10951 -179.81
lowerback -25.3003 -1.40286 -5.2056
upperback -2.2707 -0.955134 -0.33672
thorax 11.6618 -0.952192 2.23036
lowerneck -1.62379 -5.39999 -5.0251
upperneck -7.85263 -7.16976 13.0227
head -1.3574 -4.00929 4.75591
rclavicle -7.05686e-015 2.62396e-014
rhumerus -34.415 -15.8214 -79.7526
rradius 24.6649
rwrist 6.73257
rhand -8.5507 -48.3944
rfingers 7.12502
rthumb 17.3789 -77.6375
lclavicle -7.05686e-015 2.62396e-014
lhumerus -27.6231 -7.95049 84.0184
lradius 22.0644
lwrist -7.84484
lhand -22.4422 -15.8049
lfingers 7.12502
lthumb 3.98178 14.1376
rfemur -27.9865 9.20662 16.018
rtibia 6.88844
rfoot -16.1629 -8.22191
rtoes -33.6535
lfemur -28.6732 -7.4784 -17.3289
ltibia 8.91564
lfoot -7.46182 3.47696
ltoes -41.7909
